<svg xmlns="http://www.w3.org/2000/svg" width="200" height="56" fill="none" viewBox="0 0 200 56">
  <g fill="#000">
    <path d="M71.561 16.608H91.2v3.22H76.115v6.63h12.823v3.221H76.115v9.075h-4.553V16.608ZM98.068 16.608h4.584v22.146h-4.584V16.608ZM117.986 19.858h-8.643v-3.25h21.9v3.25h-8.673v18.896h-4.584V19.858ZM138 16.608h4.584v22.146H138V16.608ZM151.792 16.608h19.637v3.22h-15.084v6.63h12.826v3.221h-12.826v9.075h-4.553V16.608ZM185.907 29.4l-10.068-12.792h5.069l7.474 9.478 7.092-9.478h4.535L190.5 29.4v9.354h-4.585l-.008-9.354Z"/>
    <path d="M71.561 16.608H91.2v3.22H76.115v6.63h12.823v3.221H76.115v9.075h-4.553V16.608ZM98.068 16.608h4.584v22.146h-4.584V16.608ZM117.986 19.858h-8.643v-3.25h21.9v3.25h-8.673v18.896h-4.584V19.858ZM138 16.608h4.584v22.146H138V16.608ZM151.792 16.608h19.637v3.22h-15.084v6.63h12.826v3.221h-12.826v9.075h-4.553V16.608ZM185.907 29.4l-10.068-12.792h5.069l7.474 9.478 7.092-9.478h4.535L190.5 29.4v9.354h-4.585l-.008-9.354Z"/>
    <path d="M71.561 16.608H91.2v3.22H76.115v6.63h12.823v3.221H76.115v9.075h-4.553V16.608ZM98.068 16.608h4.584v22.146h-4.584V16.608ZM117.986 19.858h-8.643v-3.25h21.9v3.25h-8.673v18.896h-4.584V19.858ZM138 16.608h4.584v22.146H138V16.608ZM151.792 16.608h19.637v3.22h-15.084v6.63h12.826v3.221h-12.826v9.075h-4.553V16.608ZM185.907 29.4l-10.068-12.792h5.069l7.474 9.478 7.092-9.478h4.535L190.5 29.4v9.354h-4.585l-.008-9.354Z"/>
    <path d="M71.561 16.608H91.2v3.22H76.115v6.63h12.823v3.221H76.115v9.075h-4.553V16.608ZM98.068 16.608h4.584v22.146h-4.584V16.608ZM117.986 19.858h-8.643v-3.25h21.9v3.25h-8.673v18.896h-4.584V19.858ZM138 16.608h4.584v22.146H138V16.608ZM151.792 16.608h19.637v3.22h-15.084v6.63h12.826v3.221h-12.826v9.075h-4.553V16.608ZM185.907 29.4l-10.068-12.792h5.069l7.474 9.478 7.092-9.478h4.535L190.5 29.4v9.354h-4.585l-.008-9.354Z"/>
    <path d="M71.561 16.608H91.2v3.22H76.115v6.63h12.823v3.221H76.115v9.075h-4.553V16.608ZM98.068 16.608h4.584v22.146h-4.584V16.608ZM117.986 19.858h-8.643v-3.25h21.9v3.25h-8.673v18.896h-4.584V19.858ZM138 16.608h4.584v22.146H138V16.608ZM151.792 16.608h19.637v3.22h-15.084v6.63h12.826v3.221h-12.826v9.075h-4.553V16.608ZM185.907 29.4l-10.068-12.792h5.069l7.474 9.478 7.092-9.478h4.535L190.5 29.4v9.354h-4.585l-.008-9.354ZM38.747.14 2.145 13.15A3.229 3.229 0 0 0 0 16.197v9.852a2.422 2.422 0 0 0 3.23 2.284L39.833 15.32a3.233 3.233 0 0 0 2.148-3.045V2.418A2.423 2.423 0 0 0 38.747.14ZM3.497 51.852l9.495 3.374a2.422 2.422 0 0 0 3.233-2.283v-9.266L3.491 48.201a1.938 1.938 0 0 0 .006 3.65ZM37.79 21.714a2.422 2.422 0 0 0-3.233-2.281L2.155 30.949a3.225 3.225 0 0 0-2.146 3.045v12.23s.02 1.033.061 1.918a.244.244 0 0 0 .46.094 3.989 3.989 0 0 1 2.272-2.012l32.832-11.668a3.228 3.228 0 0 0 2.148-3.045l.008-9.797Z"/>
  </g>
</svg>
